<svg xmlns="http://www.w3.org/2000/svg" >

  <symbol id="instagram" fill="inherit" xmlns="http://www.w3.org/2000/svg">
    <path d="M73.2681 26.2669C73.1119 22.7247 72.539 20.2894 71.7185 18.1792C70.872 15.9393 69.5696 13.9339 67.8634 12.2668C66.1963 10.5738 64.1776 9.2582 61.9637 8.4249C59.8413 7.60433 57.4187 7.0315 53.8765 6.87533C50.3078 6.70592 49.1748 6.66675 40.1236 6.66675C31.0724 6.66675 29.9394 6.70592 26.384 6.8621C22.8417 7.01828 20.4064 7.59161 18.2968 8.41168C16.0563 9.2582 14.0509 10.5605 12.3839 12.2668C10.6908 13.9339 9.37577 15.9525 8.54197 18.1665C7.72139 20.2894 7.14857 22.7114 6.99239 26.2537C6.82299 29.8224 6.78381 30.9553 6.78381 40.0066C6.78381 49.0578 6.82299 50.1908 6.97916 53.7463C7.13534 57.2885 7.70868 59.7238 8.52925 61.834C9.37577 64.0739 10.6908 66.0793 12.3839 67.7464C14.0509 69.4394 16.0696 70.755 18.2835 71.5883C20.4064 72.4089 22.8285 72.9817 26.3712 73.1379C29.9262 73.2945 31.0597 73.3332 40.1109 73.3332C49.1621 73.3332 50.2951 73.2945 53.8505 73.1379C57.3928 72.9817 59.828 72.4089 61.9377 71.5883C66.4181 69.8561 69.9603 66.3138 71.6925 61.834C72.5126 59.7111 73.0859 57.2885 73.2421 53.7463C73.3983 50.1908 73.4375 49.0578 73.4375 40.0066C73.4375 30.9553 73.4242 29.8224 73.2681 26.2669ZM67.2646 53.4858C67.1211 56.7416 66.5742 58.4998 66.1184 59.6719C64.9982 62.5762 62.6932 64.8812 59.7889 66.0015C58.6168 66.4573 56.8459 67.0042 53.6028 67.1471C50.0865 67.3038 49.0319 67.3425 40.1368 67.3425C31.2418 67.3425 30.174 67.3038 26.6704 67.1471C23.4145 67.0042 21.6564 66.4573 20.4843 66.0015C19.039 65.4673 17.7234 64.6208 16.6556 63.5138C15.5486 62.4327 14.7021 61.1304 14.168 59.6851C13.7121 58.513 13.1653 56.7416 13.0223 53.499C12.8656 49.9827 12.827 48.9276 12.827 40.0325C12.827 31.1375 12.8656 30.0697 13.0223 26.5666C13.1653 23.3107 13.7121 21.5526 14.168 20.3805C14.7021 18.9347 15.5486 17.6196 16.6688 16.5513C17.7494 15.4443 19.0517 14.5978 20.4975 14.0641C21.6696 13.6083 23.441 13.0614 26.6836 12.918C30.1999 12.7618 31.255 12.7226 40.1496 12.7226C49.0578 12.7226 50.1124 12.7618 53.616 12.918C56.8718 13.0614 58.63 13.6083 59.8021 14.0641C61.2474 14.5978 62.563 15.4443 63.6308 16.5513C64.7377 17.6323 65.5843 18.9347 66.1184 20.3805C66.5742 21.5526 67.1211 23.3234 67.2646 26.5666C67.4208 30.0829 67.4599 31.1375 67.4599 40.0325C67.4599 48.9276 67.4208 49.9695 67.2646 53.4858Z" fill="inherit" />
    <path d="M40.1236 22.8809C30.6689 22.8809 22.9979 30.5514 22.9979 40.0066C22.9979 49.4618 30.6689 57.1324 40.1236 57.1324C49.5788 57.1324 57.2493 49.4618 57.2493 40.0066C57.2493 30.5514 49.5788 22.8809 40.1236 22.8809ZM40.1236 51.1157C33.9899 51.1157 29.0146 46.1408 29.0146 40.0066C29.0146 33.8724 33.9899 28.8976 40.1236 28.8976C46.2578 28.8976 51.2326 33.8724 51.2326 40.0066C51.2326 46.1408 46.2578 51.1157 40.1236 51.1157Z" fill="inherit" />
    <path d="M61.9252 22.2037C61.9252 24.4116 60.1349 26.2018 57.9266 26.2018C55.7187 26.2018 53.9285 24.4116 53.9285 22.2037C53.9285 19.9954 55.7187 18.2057 57.9266 18.2057C60.1349 18.2057 61.9252 19.9954 61.9252 22.2037Z" fill="inherit" />
  </symbol>

  <symbol id="arrow" width="11" height="8" viewBox="0 0 11 8" fill="currentColor" xmlns="http://www.w3.org/2000/svg">
    <path d="M10.3536 4.35355C10.5488 4.15829 10.5488 3.84171 10.3536 3.64645L7.17157 0.464466C6.97631 0.269204 6.65973 0.269204 6.46447 0.464466C6.2692 0.659728 6.2692 0.976311 6.46447 1.17157L9.29289 4L6.46447 6.82843C6.2692 7.02369 6.2692 7.34027 6.46447 7.53553C6.65973 7.7308 6.97631 7.7308 7.17157 7.53553L10.3536 4.35355ZM0 4.5H10V3.5H0V4.5Z" fill="currentColor"/>
  </symbol>

  <symbol id="quotation" width="40" height="40" viewBox="0 0 40 40" fill="currentColor" xmlns="http://www.w3.org/2000/svg">
    <g clip-path="url(#clip0_301_653)">
      <path d="M8.23926 16.7836C8.72728 13.716 12.5618 10.4392 15.5597 10.3695C15.7688 10.3695 15.978 10.2998 16.1174 10.1604C16.2568 10.0906 16.3963 10.0209 16.466 9.81177C17.5118 7.85966 16.954 6.32586 15.2111 5.07094C13.1892 3.60685 9.98221 5.07094 8.37869 6.39558C4.33504 9.74205 0.221668 15.5285 0.430822 21.0364C-0.266359 24.7316 -0.126923 28.7054 0.918849 31.9822C1.61603 34.0737 3.63786 35.1195 5.7294 35.2589C7.82095 35.3985 12.1435 36.0258 14.0259 34.771C15.9083 33.5159 16.0477 31.0758 16.2568 28.9844C16.466 26.6837 17.0935 22.361 15.1414 20.5484C13.1892 18.8054 7.61179 20.6878 8.23926 16.7836Z" fill="currentColor"/>
      <path d="M31.2463 16.7836C31.7344 13.716 35.5688 10.4392 38.5668 10.3695C38.7759 10.3695 38.9851 10.2998 39.1245 10.1604C39.264 10.0906 39.4034 10.0209 39.4732 9.81177C40.519 7.85966 39.9612 6.32586 38.2183 5.07094C36.1965 3.60685 32.9894 5.07094 31.3858 6.39558C27.3421 9.74205 23.2288 15.5287 23.4379 21.0364C22.7407 24.7316 22.8802 28.7054 23.9258 31.9822C24.623 34.0737 26.6448 35.1195 28.7365 35.2589C30.828 35.3985 35.1506 36.0258 37.033 34.771C38.9152 33.5159 39.0548 31.0758 39.2639 28.9844C39.4731 26.6837 40.1006 22.361 38.1484 20.5484C36.1963 18.8054 30.5492 20.6878 31.2463 16.7836Z" fill="currentColor"/>
    </g>
    <defs>
      <clipPath id="clip0_301_653">
        <rect width="40" height="40" fill="white"/>
      </clipPath>
    </defs>
  </symbol>

</svg>

