<svg xmlns="http://www.w3.org/2000/svg" >
  <symbol id="fb" width="12" height="22" viewBox="0 0 12 22" fill="inherit" xmlns="http://www.w3.org/2000/svg">
    <path d="M11.563 0.00457747L8.7857 0C5.66554 0 3.64916 2.12509 3.64916 5.41423V7.91055H0.856742C0.615444 7.91055 0.420044 8.1115 0.420044 8.35937V11.9763C0.420044 12.2241 0.615667 12.4249 0.856742 12.4249H3.64916V21.5514C3.64916 21.7993 3.84455 22 4.08585 22H7.72916C7.97046 22 8.16586 21.799 8.16586 21.5514V12.4249H11.4308C11.6721 12.4249 11.8675 12.2241 11.8675 11.9763L11.8689 8.35937C11.8689 8.24036 11.8228 8.12638 11.741 8.04215C11.6592 7.95793 11.5478 7.91055 11.432 7.91055H8.16586V5.79439C8.16586 4.77727 8.40181 4.26094 9.69162 4.26094L11.5625 4.26025C11.8036 4.26025 11.999 4.0593 11.999 3.81166V0.453169C11.999 0.205757 11.8038 0.00503522 11.563 0.00457747Z" fill="inherit" />
  </symbol>

  <symbol id="tw" width="22" height="18" viewBox="0 0 22 18" fill="inherit" xmlns="http://www.w3.org/2000/svg">
    <path d="M21.5 2.77258C20.7271 3.10051 19.8978 3.32292 19.0264 3.42221C19.9161 2.91205 20.5972 2.10287 20.92 1.14164C20.0854 1.61408 19.1642 1.95713 18.1826 2.14309C17.3966 1.34019 16.2785 0.840088 15.0384 0.840088C12.6593 0.840088 10.7303 2.68715 10.7303 4.96394C10.7303 5.28685 10.7683 5.60223 10.8418 5.90382C7.26201 5.73165 4.08768 4.08941 1.96314 1.59397C1.59176 2.20213 1.38049 2.91077 1.38049 3.66721C1.38049 5.09839 2.14161 6.36117 3.2964 7.09997C2.5904 7.07737 1.92639 6.89141 1.34508 6.5823V6.63381C1.34508 8.63165 2.83056 10.299 4.80024 10.6785C4.43936 10.7715 4.05882 10.823 3.66514 10.823C3.38696 10.823 3.11794 10.7966 2.85417 10.7464C3.40267 12.3861 4.99315 13.5785 6.87756 13.6112C5.40388 14.7169 3.54573 15.3741 1.52749 15.3741C1.17976 15.3741 0.837236 15.354 0.5 15.3176C2.40671 16.4899 4.67036 17.1734 7.10327 17.1734C15.028 17.1734 19.3597 10.8884 19.3597 5.43766L19.3453 4.90365C20.1917 4.32561 20.9239 3.59937 21.5 2.77258Z" fill="inherit" />
  </symbol>

  <symbol id="inst" width="20" height="20" viewBox="0 0 20 20" fill="inherit" xmlns="http://www.w3.org/2000/svg">
    <path fill-rule="evenodd" clip-rule="evenodd" d="M0 10C0 5.80863 0 3.71294 1.05041 2.26718C1.38964 1.80026 1.80026 1.38964 2.26718 1.05041C3.71294 0 5.80863 0 10 0C14.1914 0 16.2871 0 17.7328 1.05041C18.1997 1.38964 18.6104 1.80026 18.9496 2.26718C20 3.71294 20 5.80863 20 10C20 14.1914 20 16.2871 18.9496 17.7328C18.6104 18.1997 18.1997 18.6104 17.7328 18.9496C16.2871 20 14.1914 20 10 20C5.80863 20 3.71294 20 2.26718 18.9496C1.80026 18.6104 1.38964 18.1997 1.05041 17.7328C0 16.2871 0 14.1914 0 10ZM10 4.70588C7.07632 4.70588 4.70588 7.07632 4.70588 10C4.70588 12.9237 7.07632 15.2941 10 15.2941C12.9237 15.2941 15.2941 12.9237 15.2941 10C15.2941 7.07632 12.9237 4.70588 10 4.70588ZM10 13.3088C8.17618 13.3088 6.69118 11.8238 6.69118 10C6.69118 8.17485 8.17618 6.69118 10 6.69118C11.8238 6.69118 13.3088 8.17485 13.3088 10C13.3088 11.8238 11.8238 13.3088 10 13.3088ZM16.3966 4.30883C16.3966 4.69844 16.0808 5.01427 15.6912 5.01427C15.3016 5.01427 14.9857 4.69844 14.9857 4.30883C14.9857 3.91923 15.3016 3.60339 15.6912 3.60339C16.0808 3.60339 16.3966 3.91923 16.3966 4.30883Z" fill="inherit" />
  </symbol>
</svg>

